<?xml version="1.0" encoding="UTF-8" standalone="no"?>
<!-- Created with Inkscape (http://www.inkscape.org/) -->

<svg
   xmlns:dc="http://purl.org/dc/elements/1.1/"
   xmlns:cc="http://creativecommons.org/ns#"
   xmlns:rdf="http://www.w3.org/1999/02/22-rdf-syntax-ns#"
   xmlns:svg="http://www.w3.org/2000/svg"
   xmlns="http://www.w3.org/2000/svg"
   xmlns:sodipodi="http://sodipodi.sourceforge.net/DTD/sodipodi-0.dtd"
   xmlns:inkscape="http://www.inkscape.org/namespaces/inkscape"
   sodipodi:docname="casecategory_defence.svg"
   inkscape:version="0.91 r13725"
   version="1.1"
   id="svg3566"
   viewBox="0 0 399.99999 400.00001"
   height="400"
   width="400">
  <sodipodi:namedview
     inkscape:window-maximized="1"
     inkscape:window-y="-8"
     inkscape:window-x="3832"
     inkscape:window-height="1137"
     inkscape:window-width="1920"
     units="px"
     showgrid="false"
     inkscape:current-layer="layer2"
     inkscape:document-units="px"
     inkscape:cy="245.73298"
     inkscape:cx="92.211676"
     inkscape:zoom="1.4142136"
     inkscape:pageshadow="2"
     inkscape:pageopacity="0.0"
     borderopacity="1.0"
     bordercolor="#666666"
     pagecolor="#ffffff"
     id="base" />
  <defs
     id="defs3568">
    <clipPath
       id="clipPath5130"
       clipPathUnits="userSpaceOnUse">
      <ellipse
         ry="212.5"
         rx="213.23529"
         style="display:inline;fill:#a4c639;fill-opacity:1"
         cx="494.71536"
         cy="580.85931"
         id="circle5132" />
    </clipPath>
    <clipPath
       clipPathUnits="userSpaceOnUse"
       id="clipPath4692">
      <ellipse
         style="display:inline;fill:#9e1716;fill-opacity:1"
         cx="237.25989"
         cy="229.84674"
         id="circle4694"
         rx="291.49997"
         ry="296.57611" />
    </clipPath>
  </defs>
  <metadata
     id="metadata3571">
    <rdf:RDF>
      <cc:Work
         rdf:about="">
        <dc:format>image/svg+xml</dc:format>
        <dc:type
           rdf:resource="http://purl.org/dc/dcmitype/StillImage" />
        <dc:title />
      </cc:Work>
    </rdf:RDF>
  </metadata>
  <g
     inkscape:label="Layer 1"
     inkscape:groupmode="layer"
     id="layer1"
     transform="translate(0,-652.36216)"
     style="display:inline">
    <circle
       id="circle3938"
       cy="852.36218"
       cx="200"
       r="200"
       style="fill:#9e1716;fill-opacity:1" />
  </g>
  <g
     inkscape:groupmode="layer"
     id="layer2"
     inkscape:label="Layer 2"
     style="display:inline"
     transform="translate(0,-652.36216)">
    <g
       id="g4429"
       transform="matrix(0.68610642,0,0,0.67436314,37.214469,697.36201)"
       style="display:inline;fill:#600e0e;fill-opacity:1"
       clip-path="url(#clipPath4692)">
      <g
         id="g4431"
         style="fill:#600e0e;fill-opacity:1">
        <g
           id="g4433"
           style="fill:#600e0e;fill-opacity:1">
          <g
             id="g4501"
             style="fill:#600e0e;fill-opacity:1">
            <g
               id="g4503"
               style="fill:#600e0e;fill-opacity:1">
              <path
                 id="path4505"
                 d="M237.263 60.498C232.613 64.033 168.846 111.475 87.066 127.85L440.619390593 481.403390593C522.399390593 465.028390593 586.166390593 417.586390593 590.816390593 414.051390593Z"
                 style="fill:#600e0e;fill-opacity:1" />
              <path
                 id="path4507"
                 d="M87.066 127.85C80.4703851376 243.302931488 138.121940233 324.691841821 183.902161721 370.472063308L537.455552314 724.025453901C491.675330826 678.245232414 434.023775731 596.856322081 440.619390593 481.403390593Z"
                 style="fill:#600e0e;fill-opacity:1" />
              <path
                 id="path4509"
                 d="M183.902161721 370.472063308C212.952957228 399.522858815 237.223401699 414.234740244 237.263 414.213L590.816390593 767.766390593C590.776792292 767.788130837 566.506347821 753.076249408 537.455552314 724.025453901Z"
                 style="fill:#600e0e;fill-opacity:1" />
              <path
                 id="path4511"
                 d="M237.263 414.213C237.365 414.269 398.242 316.567 387.461 127.845L741.014390593 481.398390593C751.795390593 670.120390593 590.918390593 767.822390593 590.816390593 767.766390593Z"
                 style="fill:#600e0e;fill-opacity:1" />
              <path
                 id="path4513"
                 d="M387.461 127.845C305.676 111.475 237.263 60.498 237.263 60.498L590.816390593 414.051390593C590.816390593 414.051390593 659.229390593 465.028390593 741.014390593 481.398390593Z"
                 style="fill:#600e0e;fill-opacity:1" />
              <path
                 id="path4515"
                 d="M237.263 60.498C237.263 60.498 237.263 60.498 237.263 60.498L590.816390593 414.051390593C590.816390593 414.051390593 590.816390593 414.051390593 590.816390593 414.051390593Z"
                 style="fill:#600e0e;fill-opacity:1" />
            </g>
            <path
               id="path4435"
               d="m 237.263,60.498 c -4.65,3.535 -68.417,50.977 -150.197,67.352 -10.781,188.716 150.095,286.419 150.197,286.363 0.102,0.056 160.979,-97.646 150.198,-286.368 C 305.676,111.475 237.263,60.498 237.263,60.498 Z"
               inkscape:connector-curvature="0"
               style="fill:#600e0e;fill-opacity:1" />
          </g>
          <g
             id="g4518"
             style="fill:#600e0e;fill-opacity:1">
            <g
               id="g4520"
               style="fill:#600e0e;fill-opacity:1">
              <path
                 id="path4522"
                 d="M440.632 97.439C440.451275488 94.2619074263 439.092264127 91.3752376675 436.957555102 89.2405286429L790.510945696 442.793919236C792.64565472 444.928628261 794.004666081 447.81529802 794.185390593 450.992390593Z"
                 style="fill:#600e0e;fill-opacity:1" />
              <path
                 id="path4524"
                 d="M436.957555102 89.2405286429C435.241568204 87.5245417448 433.024344393 86.2944535346 430.515 85.79L784.068390593 439.343390593C786.577734986 439.847844128 788.794958797 441.077932338 790.510945696 442.793919236Z"
                 style="fill:#600e0e;fill-opacity:1" />
              <path
                 id="path4526"
                 d="M430.515 85.79C330.787 65.828 245.64 3.124 244.8 2.498L598.353390593 356.051390593C599.193390593 356.677390593 684.340390593 419.381390593 784.068390593 439.343390593Z"
                 style="fill:#600e0e;fill-opacity:1" />
              <path
                 id="path4528"
                 d="M244.8 2.498C240.295 -0.859 234.11 -0.832 229.633 2.578L583.186390593 356.131390593C587.663390593 352.721390593 593.848390593 352.694390593 598.353390593 356.051390593Z"
                 style="fill:#600e0e;fill-opacity:1" />
              <path
                 id="path4530"
                 d="M229.633 2.578C226.275 5.132 146.248 65.333 44.012 85.796L397.565390593 439.349390593C499.801390593 418.886390593 579.828390593 358.685390593 583.186390593 356.131390593Z"
                 style="fill:#600e0e;fill-opacity:1" />
              <path
                 id="path4532"
                 d="M44.012 85.796C38.379 86.923 34.221 91.714 33.891 97.446L387.444390593 450.999390593C387.774390593 445.267390593 391.932390593 440.476390593 397.565390593 439.349390593Z"
                 style="fill:#600e0e;fill-opacity:1" />
              <path
                 id="path4534"
                 d="M33.891 97.446C25.699 240.849 92.982 344.009 150.871 405.291L504.424390593 758.844390593C446.535390593 697.562390593 379.252390593 594.402390593 387.444390593 450.999390593Z"
                 style="fill:#600e0e;fill-opacity:1" />
              <path
                 id="path4536"
                 d="M150.871 405.291C154.114727493 408.726000505 157.328601867 412.027230499 160.493418124 415.192046757L514.046808718 768.74543735C510.88199246 765.580621093 507.668118086 762.279391098 504.424390593 758.844390593Z"
                 style="fill:#600e0e;fill-opacity:1" />
              <path
                 id="path4538"
                 d="M160.493418124 415.192046757C178.524114911 433.222743543 194.962460409 446.825659429 206.257 455.512L559.810390593 809.065390593C548.515851002 800.379050022 532.077505504 786.776134137 514.046808718 768.74543735Z"
                 style="fill:#600e0e;fill-opacity:1" />
              <path
                 id="path4540"
                 d="M206.257 455.512C213.874 461.367 220.026 465.668 223.842 468.245L577.395390593 821.798390593C573.579390593 819.221390593 567.427390593 814.920390593 559.810390593 809.065390593Z"
                 style="fill:#600e0e;fill-opacity:1" />
              <path
                 id="path4542"
                 d="M223.842 468.245C230.969 473.065 233.02 474.445 236.952 474.516L590.505390593 828.069390593C586.573390593 827.998390593 584.522390593 826.618390593 577.395390593 821.798390593Z"
                 style="fill:#600e0e;fill-opacity:1" />
              <path
                 id="path4544"
                 d="M236.952 474.516C237.116 474.522 237.277 474.522 237.433 474.522L590.986390593 828.075390593C590.830390593 828.075390593 590.669390593 828.075390593 590.505390593 828.069390593Z"
                 style="fill:#600e0e;fill-opacity:1" />
              <path
                 id="path4546"
                 d="M237.433 474.522C241.313 474.522 243.654 472.957 249.827 468.82L603.380390593 822.373390593C597.207390593 826.510390593 594.866390593 828.075390593 590.986390593 828.075390593Z"
                 style="fill:#600e0e;fill-opacity:1" />
              <path
                 id="path4548"
                 d="M249.827 468.82C253.17 466.576 258.585 462.84 265.331 457.736L618.884390593 811.289390593C612.138390593 816.393390593 606.723390593 820.129390593 603.380390593 822.373390593Z"
                 style="fill:#600e0e;fill-opacity:1" />
              <path
                 id="path4550"
                 d="M265.331 457.736C277.084 448.864 295.256 434.095 315.11 414.106L668.663390593 767.659390593C648.809390593 787.648390593 630.637390593 802.417390593 618.884390593 811.289390593Z"
                 style="fill:#600e0e;fill-opacity:1" />
              <path
                 id="path4552"
                 d="M315.11 414.106C352.411 376.557 382.107 334.746 403.36 289.842L756.913390593 643.395390593C735.660390593 688.299390593 705.964390593 730.110390593 668.663390593 767.659390593Z"
                 style="fill:#600e0e;fill-opacity:1" />
              <path
                 id="path4554"
                 d="M403.36 289.842C431.938 229.481 444.479 164.748 440.632 97.439L794.185390593 450.992390593C798.032390593 518.301390593 785.491390593 583.034390593 756.913390593 643.395390593Z"
                 style="fill:#600e0e;fill-opacity:1" />
              <path
                 id="path4556"
                 d="M330.16 359.379C291.865 407.4 252.288 436.653 237.263 446.87L590.816390593 800.423390593C605.841390593 790.206390593 645.418390593 760.953390593 683.713390593 712.932390593Z"
                 style="fill:#600e0e;fill-opacity:1" />
              <path
                 id="path4558"
                 d="M237.263 446.87C226.74853958 439.718739042 204.204279239 423.244444384 178.484791012 397.524956157L532.038181605 751.07834675C557.757669832 776.797834977 580.301930173 793.272129635 590.816390593 800.423390593Z"
                 style="fill:#600e0e;fill-opacity:1" />
              <path
                 id="path4560"
                 d="M178.484791012 397.524956157C167.458869898 386.499035043 155.849396172 373.774005379 144.354 359.356L497.907390593 712.909390593C509.402786765 727.327395972 521.012260491 740.052425636 532.038181605 751.07834675Z"
                 style="fill:#600e0e;fill-opacity:1" />
              <path
                 id="path4562"
                 d="M144.354 359.356C84.428 284.192 55.615 199.829 58.641 108.463L412.194390593 462.016390593C409.168390593 553.382390593 437.981390593 637.745390593 497.907390593 712.909390593Z"
                 style="fill:#600e0e;fill-opacity:1" />
              <path
                 id="path4564"
                 d="M58.641 108.463C144.959 88.969 214.782 43.877 237.329 28.114L590.882390593 381.667390593C568.335390593 397.430390593 498.512390593 442.522390593 412.194390593 462.016390593Z"
                 style="fill:#600e0e;fill-opacity:1" />
              <path
                 id="path4566"
                 d="M237.329 28.114C260.18 43.854 331.206 89.242 415.883 108.456L769.436390593 462.009390593C684.759390593 442.795390593 613.733390593 397.407390593 590.882390593 381.667390593Z"
                 style="fill:#600e0e;fill-opacity:1" />
              <path
                 id="path4568"
                 d="M415.883 108.456C418.91 199.834 390.099 284.21 330.16 359.379L683.713390593 712.932390593C743.652390593 637.763390593 772.463390593 553.387390593 769.436390593 462.009390593Z"
                 style="fill:#600e0e;fill-opacity:1" />
            </g>
            <path
               id="path4437"
               d="M 440.632,97.439 C 440.306,91.708 436.146,86.922 430.515,85.79 330.787,65.828 245.64,3.124 244.8,2.498 c -4.505,-3.357 -10.69,-3.33 -15.167,0.08 -3.358,2.554 -83.385,62.755 -185.621,83.218 -5.633,1.127 -9.791,5.918 -10.121,11.65 -8.192,143.403 59.091,246.563 116.98,307.845 21.724,23.005 42.109,40.01 55.386,50.221 7.617,5.855 13.769,10.156 17.585,12.733 7.127,4.82 9.178,6.2 13.11,6.271 0.164,0.006 0.325,0.006 0.481,0.006 3.88,0 6.221,-1.565 12.394,-5.702 3.343,-2.244 8.758,-5.98 15.504,-11.084 11.753,-8.872 29.925,-23.641 49.779,-43.63 37.301,-37.549 66.997,-79.36 88.25,-124.264 28.578,-60.361 41.119,-125.094 37.272,-192.403 z M 330.16,359.379 C 291.865,407.4 252.288,436.653 237.263,446.87 222.241,436.653 182.664,407.406 144.354,359.356 84.428,284.192 55.615,199.829 58.641,108.463 144.959,88.969 214.782,43.877 237.329,28.114 c 22.851,15.74 93.877,61.128 178.554,80.342 3.027,91.378 -25.784,175.754 -85.723,250.923 z"
               inkscape:connector-curvature="0"
               style="fill:#600e0e;fill-opacity:1" />
          </g>
        </g>
      </g>
      <g
         id="g4439"
         style="fill:#600e0e;fill-opacity:1" />
      <g
         id="g4441"
         style="fill:#600e0e;fill-opacity:1" />
      <g
         id="g4443"
         style="fill:#600e0e;fill-opacity:1" />
      <g
         id="g4445"
         style="fill:#600e0e;fill-opacity:1" />
      <g
         id="g4447"
         style="fill:#600e0e;fill-opacity:1" />
      <g
         id="g4449"
         style="fill:#600e0e;fill-opacity:1" />
      <g
         id="g4451"
         style="fill:#600e0e;fill-opacity:1" />
      <g
         id="g4453"
         style="fill:#600e0e;fill-opacity:1" />
      <g
         id="g4455"
         style="fill:#600e0e;fill-opacity:1" />
      <g
         id="g4457"
         style="fill:#600e0e;fill-opacity:1" />
      <g
         id="g4459"
         style="fill:#600e0e;fill-opacity:1" />
      <g
         id="g4461"
         style="fill:#600e0e;fill-opacity:1" />
      <g
         id="g4463"
         style="fill:#600e0e;fill-opacity:1" />
      <g
         id="g4465"
         style="fill:#600e0e;fill-opacity:1" />
      <g
         id="g4467"
         style="fill:#600e0e;fill-opacity:1" />
    </g>
  </g>
  <g
     inkscape:groupmode="layer"
     id="layer4"
     inkscape:label="Layer 3"
     style="display:inline">
    <g
       style="display:inline;fill:#ffffff"
       transform="matrix(0.68610642,0,0,0.67436314,37.214469,44.99985)"
       id="g4388">
      <g
         style="fill:#ffffff"
         id="g4344">
        <g
           style="fill:#ffffff"
           id="g4346">
          <path
             style="fill:#ffffff"
             inkscape:connector-curvature="0"
             d="m 237.263,60.498 c -4.65,3.535 -68.417,50.977 -150.197,67.352 -10.781,188.716 150.095,286.419 150.197,286.363 0.102,0.056 160.979,-97.646 150.198,-286.368 C 305.676,111.475 237.263,60.498 237.263,60.498 Z"
             id="path4348" />
          <path
             style="fill:#ffffff"
             inkscape:connector-curvature="0"
             d="M 440.632,97.439 C 440.306,91.708 436.146,86.922 430.515,85.79 330.787,65.828 245.64,3.124 244.8,2.498 c -4.505,-3.357 -10.69,-3.33 -15.167,0.08 -3.358,2.554 -83.385,62.755 -185.621,83.218 -5.633,1.127 -9.791,5.918 -10.121,11.65 -8.192,143.403 59.091,246.563 116.98,307.845 21.724,23.005 42.109,40.01 55.386,50.221 7.617,5.855 13.769,10.156 17.585,12.733 7.127,4.82 9.178,6.2 13.11,6.271 0.164,0.006 0.325,0.006 0.481,0.006 3.88,0 6.221,-1.565 12.394,-5.702 3.343,-2.244 8.758,-5.98 15.504,-11.084 11.753,-8.872 29.925,-23.641 49.779,-43.63 37.301,-37.549 66.997,-79.36 88.25,-124.264 28.578,-60.361 41.119,-125.094 37.272,-192.403 z M 330.16,359.379 C 291.865,407.4 252.288,436.653 237.263,446.87 222.241,436.653 182.664,407.406 144.354,359.356 84.428,284.192 55.615,199.829 58.641,108.463 144.959,88.969 214.782,43.877 237.329,28.114 c 22.851,15.74 93.877,61.128 178.554,80.342 3.027,91.378 -25.784,175.754 -85.723,250.923 z"
             id="path4350" />
        </g>
      </g>
      <g
         style="fill:#ffffff"
         id="g4352" />
      <g
         style="fill:#ffffff"
         id="g4354" />
      <g
         style="fill:#ffffff"
         id="g4356" />
      <g
         style="fill:#ffffff"
         id="g4358" />
      <g
         style="fill:#ffffff"
         id="g4360" />
      <g
         style="fill:#ffffff"
         id="g4362" />
      <g
         style="fill:#ffffff"
         id="g4364" />
      <g
         style="fill:#ffffff"
         id="g4366" />
      <g
         style="fill:#ffffff"
         id="g4368" />
      <g
         style="fill:#ffffff"
         id="g4370" />
      <g
         style="fill:#ffffff"
         id="g4372" />
      <g
         style="fill:#ffffff"
         id="g4374" />
      <g
         style="fill:#ffffff"
         id="g4376" />
      <g
         style="fill:#ffffff"
         id="g4378" />
      <g
         style="fill:#ffffff"
         id="g4380" />
    </g>
  </g>
</svg>
